<mxfile host="app.diagrams.net" modified="2021-01-28T18:00:29.580Z" agent="5.0 (Windows)" etag="JZ-I7Yl-3pB6HqQhJ-Z6" version="14.2.7" type="github">
  <diagram id="0PrhKRIFw6qlqC9RMZtA" name="Page-1">
    <mxGraphModel dx="1038" dy="547" grid="1" gridSize="10" guides="1" tooltips="1" connect="1" arrows="1" fold="1" page="1" pageScale="1" pageWidth="1169" pageHeight="827" math="0" shadow="0">
      <root>
        <mxCell id="0" />
        <mxCell id="1" parent="0" />
        <mxCell id="HKwQ_pfw1XNA54thK0XF-1" value="Partnership and linkages for R&amp;D" style="swimlane;" vertex="1" parent="1">
          <mxGeometry x="10" y="10" width="620" height="810" as="geometry" />
        </mxCell>
        <mxCell id="HKwQ_pfw1XNA54thK0XF-2" value="Start" style="rounded=1;whiteSpace=wrap;html=1;" vertex="1" parent="HKwQ_pfw1XNA54thK0XF-1">
          <mxGeometry x="150" y="50" width="110" height="60" as="geometry" />
        </mxCell>
      </root>
    </mxGraphModel>
  </diagram>
</mxfile>
